<svg width="60" height="60" viewBox="0 0 60 60" fill="none" xmlns="http://www.w3.org/2000/svg">
<path d="M53.025 39.7252C51.4346 43.4864 48.947 46.8007 45.7797 49.3784C42.6125 51.9562 38.862 53.7188 34.8561 54.5121C30.8503 55.3055 26.7111 55.1056 22.8004 53.9297C18.8897 52.7538 15.3266 50.6379 12.4226 47.7668C9.51857 44.8958 7.36207 41.3571 6.14162 37.4601C4.92117 33.5631 4.67394 29.4264 5.42153 25.4118C6.16912 21.3971 7.88877 17.6268 10.4301 14.4303C12.9715 11.2338 16.2572 8.70849 20 7.0752" stroke="#005D7C" stroke-width="3.5" stroke-linecap="round" stroke-linejoin="round"/>
<path d="M55 30C55 26.717 54.3534 23.4661 53.097 20.4329C51.8406 17.3998 49.9991 14.6438 47.6777 12.3223C45.3562 10.0009 42.6002 8.15938 39.5671 6.90301C36.5339 5.64664 33.283 5 30 5V30H55Z" stroke="#005D7C" stroke-width="3.5" stroke-linecap="round" stroke-linejoin="round"/>
</svg>
